<!-- <?xml version="1.0" encoding="UTF-8" standalone="no"?> -->
<svg
    #SVG
   xmlns:dc="http://purl.org/dc/elements/1.1/"
   xmlns:cc="http://creativecommons.org/ns#"
   xmlns:rdf="http://www.w3.org/1999/02/22-rdf-syntax-ns#"
   xmlns:svg="http://www.w3.org/2000/svg"
   xmlns="http://www.w3.org/2000/svg"
   xmlns:xlink="http://www.w3.org/1999/xlink"
   id="svg8"
   version="1.1"
  viewBox="0 0 598 691"
  >
   <style>
   </style>
  <defs
     id="defs2">
    <linearGradient
       id="rrtyyy-1-1-6-6-5-3">
      <stop
         id="stop1246"
         offset="0"
         style="stop-color:#bdc5ce;stop-opacity:1;" />
      <stop
         id="stop1248"
         offset="1"
         style="stop-color:#91a1b1;stop-opacity:0" />
    </linearGradient>
    <linearGradient
       gradientTransform="translate(-0.52916667,0.26458333)"
       gradientUnits="userSpaceOnUse"
       y2="118.30126"
       x2="309.62253"
       y1="67.068756"
       x1="-1.85625"
       id="linearGradient1252"
       xlink:href="#rrtyyy-1-1-6-6-5-3" />
  </defs>
<!--   <metadata
     id="metadata5">
    <rdf:RDF>
      <cc:Work
         rdf:about="">
        <dc:format>image/svg+xml</dc:format>
        <dc:type
           rdf:resource="http://purl.org/dc/dcmitype/StillImage" />
        <dc:title></dc:title>
      </cc:Work>
    </rdf:RDF>
  </metadata> -->
  <rect
     y="0.26458818"
     x="-0.52916664"
     height="210"
     width="297"
     id="rect1223"
     style="display:inline;opacity:1;fill:url(#linearGradient1252);fill-opacity:1;fill-rule:evenodd;stroke:#000000;stroke-width:0.70999998;stroke-linecap:round;stroke-linejoin:round;stroke-miterlimit:4;stroke-dasharray:none;stroke-dashoffset:0;stroke-opacity:1;paint-order:normal" />
  <g
     style="display:inline"
     id="g1179">
    <g
       id="g1141"
       style="display:inline">
      <path
         id="path830-9-0"
         d="m 233.95127,2.7812497 c -2.88866,-0.2018292 -6.08334,0.5058991 -8.74219,2.3125003 -2.6938,1.830356 -4.76578,5.100253 -4.38281,9.105469 l -0.01,-0.21875 v 11.058593 h -24.79688 c -0.0273,1.8e-4 -0.0547,8.47e-4 -0.082,0.002 -5.14574,0.18466 -9.13018,1.926641 -11.75586,4.599609 -2.62216,2.669389 -3.82685,6.166501 -3.83008,9.570312 -0.30972,5.14136 -0.3088,10.777904 1.24414,15.63672 1.56539,4.897758 5.19484,9.134973 11.15821,9.906249 0.0984,0.01291 0.1976,0.01942 0.29687,0.01953 h 27.76563 v 4.839843 H 20.433701 c -4.971013,-0.03399 -9.060322,1.486011 -11.8613285,4.158155 -2.801006,2.672141 -4.2175101,6.408724 -4.2382811,10.363282 -3e-6,0.0021 -3e-6,0.0039 0,0.0059 L 4.0430754,190.31836 c -2.01e-4,0.0176 -2.01e-4,0.0351 0,0.0527 0.09118,4.53344 0.6565081,8.49638 3.0605471,11.47852 2.40404,2.98214 6.4497775,4.34237 11.9140625,4.14258 l -0.08398,0.002 H 210.86924 c 0.0652,1e-4 0.13035,-0.003 0.19531,-0.008 4.38797,-0.37234 8.13985,-1.99813 10.75391,-4.50391 2.61405,-2.50578 4.05885,-5.993 3.58789,-9.60156 l 0.0195,0.29883 V 74.222657 h 27.02345 l -0.1543,-0.0059 c 6.84889,0.461131 13.30116,-5.049078 13.93749,-12.902343 0.003,-0.03121 0.005,-0.06246 0.006,-0.09375 l 0.32617,-8.144531 h 10.38865 l -0.15623,-0.0059 c 3.2567,0.221276 6.20456,-1.125874 8.24611,-3.271486 2.04152,-2.145609 3.26879,-5.05495 3.49022,-8.183595 0.004,-0.05395 0.006,-0.108019 0.006,-0.162108 v -6.3125 c -0.003,-3.335036 -2.1707,-5.961936 -4.7461,-7.595703 -2.57543,-1.633767 -5.69537,-2.50586 -8.69728,-2.50586 h -28.36336 c 0.0452,-0.47919 0.21528,-0.846948 0.22656,-1.355468 1.9e-4,-0.01693 1.9e-4,-0.03385 0,-0.05078 V 13.98039 c -1.5e-4,-0.02801 -7.9e-4,-0.05601 -0.002,-0.08399 0,0 -0.077,-2.903416 -1.80664,-5.757812 -1.71041,-2.822908 -5.40609,-5.5771144 -11.1991,-5.3574223 z m -0.24413,4.5859373 c 0.0974,0.0082 0.19528,0.01012 0.29296,0.0059 4.51896,-0.221985 6.16154,1.425675 7.20898,3.154298 1.04745,1.728622 1.14063,3.537109 1.14063,3.537109 v 9.517577 c -0.0137,0.619238 -0.15906,0.949166 -0.2246,1.457031 H 225.42588 V 13.980469 c 2e-4,-0.07368 -0.003,-0.147337 -0.01,-0.220703 -0.22511,-2.354254 0.72329,-3.723974 2.38281,-4.851563 1.65951,-1.127589 4.09913,-1.683088 5.9082,-1.541016 z m -37.61329,22.283205 h 24.72266 v 1.457031 c -1.62595,0.35991 -3.18311,0.903528 -4.55469,1.779297 -2.50456,1.599186 -4.35546,4.40577 -4.35546,7.824218 -2.7e-4,0.02215 -2.7e-4,0.04427 0,0.06641 0.0923,3.172386 0.86581,6.157744 3.08593,8.341797 1.4242,1.401072 3.46947,2.275896 5.82422,2.955079 v 8.087889 h -27.54297 c -4.18716,-0.56855 -6.06021,-2.880048 -7.28711,-6.71875 -1.23497,-3.863938 -1.33431,-9.134772 -1.03125,-14.078126 0.003,-0.0468 0.005,-0.0937 0.006,-0.140626 0,-2.338726 0.79436,-4.607216 2.50976,-6.353513 1.71381,-1.744676 4.40988,-3.067228 8.62305,-3.220704 z m 29.33203,0 h 14.38867 c -0.91125,0.579879 -2.043,0.958982 -3.69922,0.958982 h -10.68945 z m 20.26953,0 h 29.40041 c 2.05091,0 4.49913,0.69201 6.2285,1.789062 1.72937,1.097053 2.60461,2.368931 2.60548,3.703124 v 6.162109 c -0.15316,2.110745 -1.00322,4.030679 -2.22657,5.316409 -1.22658,1.289121 -2.73174,1.976125 -4.59375,1.849609 -0.052,-0.0031 -0.10414,-0.0044 -0.15626,-0.0039 h -10.19921 c -0.3047,-1.995199 -1.15447,-3.96478 -2.48632,-5.677737 -2.26286,-2.910332 -6.05182,-5.132975 -10.57032,-4.666014 v 0 c -7.22433,-0.896377 -11.8517,4.520951 -12.01758,9.941447 -0.001,0.02341 -0.002,0.04686 -0.002,0.07031 v 0.332031 h -16.10937 c -0.0599,-0.0079 -0.0835,-0.02508 -0.14258,-0.0332 V 35.21876 h 10.68945 c 2.83498,0 5.62264,-0.714113 7.66797,-2.701171 0.8082,-0.785175 1.41372,-1.774129 1.91211,-2.867187 z m -24.8789,6.279295 v 11.441407 c -1.18343,-0.452739 -2.02022,-0.97673 -2.58985,-1.537111 -1.14328,-1.12472 -1.62523,-2.610852 -1.70508,-5.148437 0.008,-1.906693 0.74632,-2.969453 2.22266,-3.912108 0.55735,-0.355872 1.31797,-0.601443 2.07227,-0.843751 z m 32.83398,6.773439 c 0,0 -0.17349,0.01781 0,4e-5 2.80993,-0.290388 5.50022,1.017246 6.97657,2.916015 0.69474,0.893542 1.11492,1.906449 1.36718,2.847659 h -15.70508 v -0.269531 c 0,-2.573733 2.62188,-6.0822 7.36133,-5.494143 z m -28.22461,10.373047 h 16.25196 v 0.521485 c -0.16695,2.996433 -0.92902,4.466387 -2.13086,5.367187 -1.20523,0.903335 -3.32241,1.405067 -6.63086,1.201171 -0.0475,-0.0028 -0.095,-0.0041 -0.14257,-0.0039 h -7.34767 z m 20.86328,0 h 15.66016 l -0.31445,7.876952 c -0.45473,5.546731 -4.85297,8.947206 -9.0293,8.666017 -0.052,-0.0037 -0.10411,-0.0057 -0.15625,-0.0059 h -27.02344 v -4.839843 h 7.34767 l -0.14064,-0.0059 c 3.86474,0.238178 7.16606,-0.229269 9.6797,-2.11328 2.51362,-1.884013 3.76544,-5.019553 3.97265,-8.826172 0.002,-0.04162 0.004,-0.08331 0.004,-0.125 z M 20.402451,74.222657 c 0.0052,1.8e-5 0.01042,1.8e-5 0.01563,0 H 220.81651 V 192.17969 c 2e-5,0.0999 0.007,0.19975 0.0195,0.29883 0.27154,2.08057 -0.47585,4.0163 -2.20703,5.67578 -1.72352,1.65212 -4.45785,2.92615 -7.91211,3.22851 H 18.933701 c -0.028,1.6e-4 -0.056,8e-4 -0.08398,0.002 -4.689133,0.17145 -6.849337,-0.80655 -8.15625,-2.42774 -1.3066735,-1.62089 -1.9573135,-4.52481 -2.0410155,-8.67578 -1.5e-5,-8e-4 1.6e-5,-0.001 0,-0.002 L 8.9434665,84.158206 v -0.0059 c 0.01658,-2.896584 0.983914,-5.302326 2.8105465,-7.044923 1.827942,-1.743844 4.610009,-2.91234 8.648438,-2.884765 z"
         style="color:#000000;font-style:normal;font-variant:normal;font-weight:normal;font-stretch:normal;font-size:medium;line-height:normal;font-family:sans-serif;font-variant-ligatures:normal;font-variant-position:normal;font-variant-caps:normal;font-variant-numeric:normal;font-variant-alternates:normal;font-feature-settings:normal;text-indent:0;text-align:start;text-decoration:none;text-decoration-line:none;text-decoration-style:solid;text-decoration-color:#000000;letter-spacing:normal;word-spacing:normal;text-transform:none;writing-mode:lr-tb;direction:ltr;text-orientation:mixed;dominant-baseline:auto;baseline-shift:baseline;text-anchor:start;white-space:normal;shape-padding:0;clip-rule:nonzero;display:inline;overflow:visible;visibility:visible;opacity:1;isolation:auto;mix-blend-mode:normal;color-interpolation:sRGB;color-interpolation-filters:linearRGB;solid-color:#000000;solid-opacity:1;vector-effect:none;fill:#283487;fill-opacity:0.62352941;fill-rule:evenodd;stroke:#000000;stroke-width:0.81;stroke-linecap:round;stroke-linejoin:round;stroke-miterlimit:4;stroke-dasharray:none;stroke-dashoffset:0;stroke-opacity:0.99497483;paint-order:normal;color-rendering:auto;image-rendering:auto;shape-rendering:auto;text-rendering:auto;enable-background:accumulate" />
      <path
         transform="scale(0.26458333)"
         id="path941"
         d="M 49.479488,774.0105 C 34.658105,770.041 26.082091,761.74018 21.044626,746.4881 c -2.622382,-7.93988 -2.960847,-12.91213 -3.417521,-50.20558 -0.278781,-22.7661 0.01166,-120.32008 0.645423,-216.78661 l 1.152297,-175.3937 3.630325,-7.71732 c 7.158514,-15.21753 18.31288,-24.21727 35.593867,-28.71839 7.32199,-1.90714 51.875743,-2.15091 393.127633,-2.15091 H 836.64642 V 254.3502 243.18479 l -56.51006,-0.41057 -56.51007,-0.41059 -9.40127,-4.6301 c -13.49454,-6.64601 -21.36737,-17.0821 -27.23593,-36.10348 -2.15399,-6.98156 -2.58441,-13.16727 -2.58441,-37.14123 0,-26.78712 0.21501,-29.23042 3.12754,-35.54108 4.42977,-9.59812 10.51278,-16.78484 18.5992,-21.97388 13.72972,-8.810338 15.037,-8.980871 75.09059,-9.795488 l 54.72283,-0.742305 0.70894,-28.062992 c 0.79745,-31.567232 1.76493,-35.095231 12.11624,-44.183812 8.70537,-7.64341 16.3707,-10.309346 31.53251,-10.966722 22.63055,-0.9812 36.99607,5.620814 45.44389,20.884812 l 4.20944,7.605879 0.4553,27.644781 0.45531,27.644782 61.98485,0.41821 61.98488,0.418212 9.1205,4.363313 c 10.3587,4.9557 18.0311,11.85398 21.6378,19.45461 2.0942,4.41312 2.3889,8.31628 1.9459,25.7702 -0.5892,23.21516 -2.4259,29.10939 -12.2135,39.19482 -9.5345,9.82467 -12.9924,10.75413 -42.9411,11.54225 l -26.6599,0.70158 -0.9652,17.53937 c -0.5308,9.64665 -1.3782,19.74933 -1.8829,22.45039 -2.572,13.76366 -15.03613,29.34662 -28.41792,35.52877 -6.3809,2.94785 -8.73871,3.08307 -65.55126,3.75942 l -58.93228,0.70158 -0.33081,230.68461 -0.33081,230.68461 -3.11705,6.44767 c -4.10284,8.48673 -14.1514,18.35704 -22.88118,22.47529 -15.91515,7.50792 7.1513,7.09678 -393.58346,7.01535 C 106.21594,776.08733 56.181348,775.8054 49.479488,774.0105 Z M 812.79287,759.80353 c 9.75407,-3.95429 17.53843,-10.33922 21.08797,-17.2969 2.71863,-5.32895 2.76558,-9.31639 2.76558,-234.90666 V 278.11428 l -386.91851,0.36562 c -366.976751,0.34677 -387.247983,0.49419 -393.311259,2.86028 -9.356898,3.65137 -16.06109,9.83412 -20.528684,18.93201 l -3.947849,8.03947 -0.701575,204.85984 c -0.385866,112.67291 -0.221489,210.22157 0.365284,216.77479 1.193646,13.3309 5.042725,22.74537 11.094898,27.13703 9.126723,6.62266 -5.688837,6.3904 389.840605,6.11149 l 372.53622,-0.26268 z M 965.16139,263.93415 c 3.9806,-1.00233 8.8038,-3.85012 13.17109,-7.77668 9.82718,-8.83549 12.19828,-16.0426 12.84736,-39.05054 l 0.51461,-18.24094 -31.01011,-0.37707 -31.0101,-0.37707 -1.64643,9.96952 c -0.90554,5.48323 -2.84856,12.32587 -4.31781,15.20585 -3.54273,6.94431 -12.61473,14.97908 -19.2623,17.05998 -2.94862,0.92301 -16.41093,2.07001 -29.91624,2.54889 l -24.55512,0.87069 -0.42301,8.97267 c -0.23266,4.93498 -0.0946,9.82846 0.30674,10.87441 0.59662,1.55475 10.60909,1.90173 54.8753,1.90173 35.51633,0 56.30638,-0.54411 60.42602,-1.58144 z m -128.82257,-51.81276 -0.39398,-16.91233 -8.27886,-3.36236 c -14.86653,-6.03787 -22.47318,-16.30579 -24.18047,-32.64029 -1.80388,-17.2587 8.27348,-32.2858 25.23731,-37.63317 7.56898,-2.38591 7.9236,-2.70945 7.9236,-7.22906 v -4.73137 l -53.67048,0.50585 c -37.25407,0.35112 -55.24872,1.02988 -58.83028,2.2191 -10.09024,3.35035 -18.3574,10.22214 -22.8124,18.96205 -3.81999,7.4941 -4.23128,9.69007 -4.75366,25.38124 -1.29453,38.88456 6.36881,62.22958 22.89178,69.73581 5.13465,2.33261 10.48727,2.5579 61.44303,2.58603 l 55.81838,0.0309 -0.39397,-16.91232 z m 68.5265,13.31774 c 6.74058,-5.039 9.13816,-9.5296 9.96675,-18.66735 l 0.78526,-8.66005 -32.8205,0.37712 -32.82049,0.37714 -0.40669,13.22466 c -0.22368,7.27356 -0.0703,14.10121 0.34078,15.17255 0.6081,1.58467 5.44039,1.86593 25.91623,1.5084 22.841,-0.39882 25.52666,-0.70704 29.03866,-3.33247 z m 11.03177,-46.52447 c 2.03785,-13.58931 10.14309,-24.42385 22.47767,-30.04662 6.41179,-2.92284 27.28033,-3.60133 36.02911,-1.1714 13.09609,3.63738 26.09203,16.75055 30.03173,30.30251 l 2.2417,7.71127 24.8894,-0.43796 c 24.3116,-0.42781 25.0213,-0.52538 30.5744,-4.20405 9.3847,-6.21695 12.2484,-13.92589 12.8044,-34.46975 0.5835,-21.55885 -0.8587,-24.60995 -14.9011,-31.52546 l -9.352,-4.60564 -61.92938,-0.40538 -61.92935,-0.40538 -1.77798,4.29246 c -0.9779,2.36084 -3.74821,5.95389 -6.15624,7.98454 -8.63687,7.28334 -12.28049,8.05882 -41.5617,8.84571 l -27.36141,0.7353 -0.38441,25.20952 c -0.21141,13.86523 -0.0734,26.02002 0.30676,27.01063 0.53475,1.39355 7.9678,1.80111 32.8483,1.80111 h 32.15716 z m 75.94292,4.64333 c 0.89722,-2.33812 -2.74978,-9.99616 -6.97465,-14.64549 -9.88931,-10.88281 -35.88475,-13.40771 -46.73121,-4.53892 -4.74906,3.88315 -8.86885,11.59028 -8.87461,16.60225 l -0.005,4.56024 h 30.91332 c 25.30449,0 31.05106,-0.3589 31.6724,-1.97808 z M 836.64642,157.47307 c 0,-17.44136 -0.4467,-23.85354 -1.66173,-23.85354 -4.24023,0 -14.0311,6.24507 -16.17399,10.31654 -2.85123,5.4173 -2.7992,18.78584 0.0947,24.34911 3.13839,6.0331 11.57331,12.8914 15.98701,12.99877 1.33604,0.0325 1.75394,-5.64072 1.75394,-23.81088 z m 65.2353,-41.19178 c 3.28521,-0.98996 5.79364,-2.686 6.06626,-4.10161 0.42749,-2.21977 -1.85803,-2.41369 -28.44665,-2.41369 -24.40472,0 -29.0374,0.32809 -29.71915,2.10472 -0.44422,1.1576 -0.44422,3.05185 0,4.20945 0.67458,1.75793 4.57187,2.08696 23.65288,1.99689 13.43352,-0.0634 25.15288,-0.80322 28.44666,-1.79576 z M 917.1774,94.918158 c 0.46844,-1.220718 0.84552,-12.112667 0.83798,-24.204331 -0.0125,-20.129228 -0.29184,-22.577007 -3.30899,-29.000595 -5.5936,-11.908888 -12.9262,-15.966915 -29.04585,-16.074632 -16.96078,-0.113337 -30.23211,6.167717 -34.47184,16.314838 -2.00969,4.809832 -2.86735,52.35992 -0.9785,54.24877 0.51448,0.514489 15.60095,0.935434 33.52547,0.935434 28.42346,0 32.69891,-0.283758 33.44173,-2.219484 z"
         style="display:inline;opacity:0.73000004;fill:#5e803a;fill-opacity:0.00505054;fill-rule:evenodd;stroke:#759abe;stroke-width:4.29562664;stroke-linecap:round;stroke-linejoin:round;stroke-miterlimit:4;stroke-dasharray:none;stroke-dashoffset:0;stroke-opacity:0.99497483;paint-order:normal" />
      <path
         transform="scale(0.26458333)"
         id="path943"
         d="m 74.689465,772.12631 c -24.187331,-0.72109 -26.481632,-1.0209 -32.8244,-4.28944 C 33.29035,763.41818 27.850371,756.75264 24.092236,746.06008 21.401938,738.40571 21.098012,733.79403 20.488894,691.38409 20.123019,665.91 20.371145,568.35036 21.040286,474.58489 l 1.216621,-170.48268 3.27439,-6.31417 c 7.089018,-13.67012 14.520983,-20.26021 29.606765,-26.25296 5.934235,-2.35734 26.976175,-2.52796 394.940638,-3.20238 l 388.67244,-0.71238 V 254.2904 240.96048 l -57.52913,-0.70158 -57.52914,-0.70157 -7.31963,-3.85854 c -12.86657,-6.78259 -20.34444,-16.43167 -26.23365,-33.85063 -1.86106,-5.50461 -2.31369,-12.6853 -2.31856,-36.78304 -0.006,-29.37796 0.062,-30.07743 3.59853,-37.05647 4.60263,-9.08284 12.69434,-17.16184 21.82091,-21.78663 9.64276,-4.88635 26.80984,-6.225994 80.15887,-6.255246 34.36149,-0.01884 41.99697,-0.376324 43.66499,-2.044341 1.56963,-1.569635 2.17045,-8.077886 2.68782,-29.115354 0.75061,-30.521371 1.63297,-34.095499 10.29468,-41.700587 9.68408,-8.502736 16.20729,-10.555341 33.70431,-10.605459 14.57236,-0.04174 16.04882,0.218668 23.85355,4.207119 6.43042,3.286144 9.5942,6.102785 13.93228,12.403571 l 5.6126,8.151958 0.70157,28.989342 0.70158,28.989343 63.14173,0.701575 63.14175,0.701579 7.4931,3.94644 c 10.0787,5.30819 19.3573,14.10708 21.3986,20.29225 2.3838,7.22322 0.88,40.084 -2.1698,47.41018 -2.8888,6.9396 -12.5561,17.08899 -19.0046,19.9522 -3.6445,1.61824 -11.5337,2.34525 -30.5913,2.81912 -19.8963,0.49471 -26.138,1.09618 -27.7122,2.67042 -1.3794,1.37934 -2.0562,5.26676 -2.1076,12.10449 -0.1273,16.93552 -2.15516,31.14979 -5.40066,37.8541 -4.43862,9.16897 -12.75404,18.0056 -21.38639,22.7269 l -7.51445,4.10988 -58.41558,0.56852 c -32.12858,0.31268 -59.27952,1.10237 -60.33544,1.75486 -1.60722,0.99318 -2.03409,38.95232 -2.62142,233.10818 -0.64958,214.73664 -0.87813,232.24413 -3.08425,236.27153 -3.76959,6.88158 -14.98253,17.10751 -23.12935,21.09337 -7.00072,3.42513 -9.3007,3.72784 -36.58155,4.81465 -31.68454,1.26225 -666.58786,1.24766 -708.983845,-0.0163 z M 813.49445,762.5158 c 11.09284,-5.09541 17.4217,-10.10996 21.48675,-17.02457 l 3.76994,-6.41264 V 507.5589 276.03922 l -287.64567,-0.34657 c -158.20512,-0.19062 -334.05484,0.15158 -390.77716,0.76044 -101.351585,1.0879 -103.228366,1.15843 -108.744098,4.08634 -7.104476,3.77126 -14.887965,11.92486 -19.144538,20.0549 l -3.305856,6.31418 v 215.38346 c 0,231.23546 -0.336424,220.16104 7.037225,231.65118 5.957222,9.28297 9.798195,10.18074 47.68561,11.14601 18.521577,0.47188 188.688547,0.81101 378.148817,0.75362 l 344.47323,-0.10439 7.01575,-3.22263 z M 970.00007,265.13284 c 8.62735,-4.27775 15.07531,-10.64113 19.08313,-18.83282 3.58787,-7.33334 3.92584,-9.5006 4.47029,-28.66612 l 0.58899,-20.73301 -3.32873,-0.81735 c -1.83082,-0.44954 -16.86924,-0.63881 -33.41875,-0.42061 l -30.08998,0.39676 -1.89836,10.35948 c -2.28122,12.44867 -5.678,19.52909 -11.87628,24.75539 -8.08848,6.82009 -12.37885,7.78636 -38.56862,8.68628 -18.37001,0.63122 -25.02592,1.34059 -26.51073,2.8254 -2.56842,2.56842 -2.74996,20.45232 -0.22863,22.5231 3.21251,2.63843 8.43126,2.85621 62.79095,2.62016 48.38538,-0.21012 54.53928,-0.49145 58.98672,-2.69666 z M 839.14315,213.3421 c 0.28867,-13.10508 -0.0812,-18.21378 -1.40315,-19.37992 -0.98734,-0.87099 -5.87256,-3.59674 -10.85605,-6.05722 -16.08659,-7.94239 -23.52646,-23.01847 -19.73032,-39.98137 2.17788,-9.73183 11.45587,-19.73216 21.77546,-23.47079 9.90298,-3.5877 10.72477,-4.4749 10.24231,-11.05761 l -0.42026,-5.73393 -54.23744,0.2121 c -45.01868,0.17604 -55.54487,0.59217 -61.92953,2.44824 -10.038,2.91812 -20.4921,12.20203 -25.00301,22.20427 -3.0838,6.83786 -3.3413,9.18921 -3.3464,30.5598 -0.007,26.54747 2.31072,39.58632 9.16318,51.56394 4.67489,8.17137 12.65989,14.28735 20.71467,15.86606 2.85607,0.55979 29.81814,0.92891 59.9157,0.82028 l 54.72283,-0.19752 z m 57.52415,17.23922 c 13.42333,-1.91085 19.60212,-9.37889 20.9374,-25.30615 l 0.8314,-9.91706 h -33.77886 c -28.83721,0 -34.10144,0.32257 -35.98383,2.20496 -1.70418,1.70418 -2.20006,5.28924 -2.18346,15.78543 0.022,13.92578 0.53836,16.07949 4.18796,17.46876 3.076,1.17093 37.34139,0.99513 45.98939,-0.23594 z m 22.02547,-50.88471 c 2.18987,-10.97234 8.43255,-20.51924 16.80142,-25.69432 6.56221,-4.05788 7.55796,-4.24654 22.4133,-4.24654 14.61542,0 15.99658,0.24956 23.07282,4.1689 9.50127,5.2625 16.50269,13.75767 20.57369,24.96311 l 3.18,8.75303 25.7527,-0.0968 c 28.0087,-0.10523 30.4612,-0.65758 37.9558,-8.5476 5.7231,-6.02514 7.9726,-12.89638 8.9981,-27.48485 1.7658,-25.12153 -1.2364,-31.65968 -18.2909,-39.83281 l -9.847,-4.71902 h -62.10038 -62.10044 l -2.68552,5.26181 c -6.44932,12.63641 -12.33016,14.63703 -45.51522,15.48393 -20.40296,0.52069 -26.8532,1.13192 -28.41378,2.69251 -1.61005,1.61004 -2.01455,7.18438 -1.99741,27.52615 0.0112,14.02898 0.48537,26.22348 1.05236,27.09887 1.76884,2.73098 5.74995,3.02549 38.10422,2.8188 l 31.46075,-0.20097 z m 75.12741,5.83946 c 1.67178,-2.66951 0.69342,-6.1007 -4.0009,-14.0315 -2.86462,-4.83959 -5.70354,-7.29723 -12.15633,-10.52362 -7.41281,-3.70641 -9.84419,-4.20354 -20.34567,-4.15997 -12.69527,0.0526 -17.67178,1.73114 -23.43578,7.90446 -5.71995,6.12613 -9.52545,19.65412 -6.40626,22.77331 0.56497,0.56498 15.42715,0.82807 33.02705,0.58464 26.58703,-0.36773 32.22276,-0.79862 33.31789,-2.54732 z M 838.08429,180.5337 c 0.75264,-1.97957 1.36843,-12.35685 1.36843,-23.06063 0,-27.01322 -1.34334,-29.62616 -12.33347,-23.99009 -9.44211,4.8422 -12.07122,8.91978 -12.67828,19.66319 -0.70184,12.4208 2.69841,20.61666 11.06894,26.68024 7.28925,5.28031 10.76147,5.47561 12.57438,0.70729 z m 66.524,-62.47338 c 6.02591,-2.95245 7.76932,-6.56345 4.38293,-9.07809 -2.14467,-1.59258 -8.25959,-2.01847 -28.76456,-2.00338 -14.32248,0.0105 -27.44066,0.39442 -29.15149,0.85307 -5.41638,1.45206 -5.93006,10.71272 -0.68211,12.29723 1.31426,0.39681 13.14101,0.5392 26.28166,0.3164 17.02001,-0.28856 25.05455,-0.97463 27.93357,-2.38523 z m 14.32836,-21.624253 c 1.69098,-2.281142 1.99764,-7.270136 1.63871,-26.659843 -0.43904,-23.718713 -0.46613,-23.897164 -4.79093,-31.570866 -6.63152,-11.766657 -12.83868,-14.73307 -30.82857,-14.73307 -12.94678,0 -14.81635,0.352683 -22.31425,4.209448 -9.82904,5.055857 -13.41708,9.513332 -14.89566,18.505126 -1.41191,8.586375 -1.57257,48.339889 -0.20364,50.389599 1.96834,2.94721 5.41075,3.219003 37.27721,2.943191 30.23551,-0.261694 32.15384,-0.435077 34.11713,-3.083585 z"
         style="display:inline;opacity:1;fill:#0000ff;fill-opacity:0.84848489;fill-rule:evenodd;stroke:#8db4ef;stroke-width:0;stroke-linecap:round;stroke-linejoin:round;stroke-miterlimit:4;stroke-dasharray:none;stroke-dashoffset:0;stroke-opacity:0.99497483;paint-order:normal" />
    </g>
    <g
       id="g900"
       style="display:inline">
      <path
         id="path897-9"
         d="m 195.75226,24.12664 v 6.43413 l 1.27798,0.003 v -6.43694 z"
         style="display:inline;opacity:1;fill:#225f97;fill-opacity:1;fill-rule:evenodd;stroke:#061019;stroke-width:0.57884157;stroke-linecap:round;stroke-linejoin:round;stroke-miterlimit:4;stroke-dasharray:none;stroke-dashoffset:0;stroke-opacity:1;paint-order:normal" />
      <path
         id="path897-3"
         d="m 275.94226,47.653169 v 6.43413 l 1.27798,0.003 v -6.43694 z"
         style="display:inline;opacity:1;fill:#225f97;fill-opacity:1;fill-rule:evenodd;stroke:#061019;stroke-width:0.57884157;stroke-linecap:round;stroke-linejoin:round;stroke-miterlimit:4;stroke-dasharray:none;stroke-dashoffset:0;stroke-opacity:1;paint-order:normal" />
      <path
         id="path897-35"
         d="m 276.68476,24.180243 v 6.43413 l 1.27798,0.003 v -6.43694 z"
         style="display:inline;opacity:1;fill:#225f97;fill-opacity:1;fill-rule:evenodd;stroke:#061019;stroke-width:0.57884157;stroke-linecap:round;stroke-linejoin:round;stroke-miterlimit:4;stroke-dasharray:none;stroke-dashoffset:0;stroke-opacity:1;paint-order:normal" />
      <path
         id="path897-6"
         d="m 233.61976,59.299699 v 6.43413 l 1.27798,0.003 v -6.43694 z"
         style="display:inline;opacity:1;fill:#225f97;fill-opacity:1;fill-rule:evenodd;stroke:#061019;stroke-width:0.57884157;stroke-linecap:round;stroke-linejoin:round;stroke-miterlimit:4;stroke-dasharray:none;stroke-dashoffset:0;stroke-opacity:1;paint-order:normal" />
      <path
         id="path897-30"
         d="m 234.73351,30.162331 v 6.43413 l 1.27798,0.003 v -6.43694 z"
         style="display:inline;opacity:1;fill:#225f97;fill-opacity:1;fill-rule:evenodd;stroke:#061019;stroke-width:0.57884157;stroke-linecap:round;stroke-linejoin:round;stroke-miterlimit:4;stroke-dasharray:none;stroke-dashoffset:0;stroke-opacity:1;paint-order:normal" />
      <path
         id="path897-17"
         d="m 235.52961,1.9473313 v 6.43413 l 1.27798,0.003 v -6.43694 z"
         style="display:inline;opacity:1;fill:#225f97;fill-opacity:1;fill-rule:evenodd;stroke:#061019;stroke-width:0.57884157;stroke-linecap:round;stroke-linejoin:round;stroke-miterlimit:4;stroke-dasharray:none;stroke-dashoffset:0;stroke-opacity:1;paint-order:normal" />
      <path
         id="path897-63"
         d="m 219.90269,16.47545 h 6.43413 l 0.003,-1.27798 h -6.43694 z"
         style="display:inline;opacity:1;fill:#225f97;fill-opacity:1;fill-rule:evenodd;stroke:#061019;stroke-width:0.57884157;stroke-linecap:round;stroke-linejoin:round;stroke-miterlimit:4;stroke-dasharray:none;stroke-dashoffset:0;stroke-opacity:1;paint-order:normal" />
      <path
         id="path897-2"
         d="m 247.9144,13.945931 h -6.43413 l -0.003,1.27799 h 6.43694 z"
         style="display:inline;opacity:1;fill:#225f97;fill-opacity:1;fill-rule:evenodd;stroke:#061019;stroke-width:0.57884157;stroke-linecap:round;stroke-linejoin:round;stroke-miterlimit:4;stroke-dasharray:none;stroke-dashoffset:0;stroke-opacity:1;paint-order:normal" />
      <path
         id="path897-03"
         d="m 261.0087,47.226789 h 6.43412 l 0.003,-1.27798 h -6.43694 z"
         style="display:inline;opacity:1;fill:#225f97;fill-opacity:1;fill-rule:evenodd;stroke:#061019;stroke-width:0.57884157;stroke-linecap:round;stroke-linejoin:round;stroke-miterlimit:4;stroke-dasharray:none;stroke-dashoffset:0;stroke-opacity:1;paint-order:normal" />
      <path
         id="path897-27"
         d="m 240.85101,47.364605 h 6.43413 l 0.003,-1.27798 h -6.43695 z"
         style="display:inline;opacity:1;fill:#225f97;fill-opacity:1;fill-rule:evenodd;stroke:#061019;stroke-width:0.57884157;stroke-linecap:round;stroke-linejoin:round;stroke-miterlimit:4;stroke-dasharray:none;stroke-dashoffset:0;stroke-opacity:1;paint-order:normal" />
      <path
         id="path897-095"
         d="m 254.78101,37.078302 v 6.43413 l 1.27798,0.003 v -6.43694 z"
         style="display:inline;opacity:1;fill:#225f97;fill-opacity:1;fill-rule:evenodd;stroke:#061019;stroke-width:0.57884157;stroke-linecap:round;stroke-linejoin:round;stroke-miterlimit:4;stroke-dasharray:none;stroke-dashoffset:0;stroke-opacity:1;paint-order:normal" />
      <path
         id="path897-42"
         d="m 251.20629,37.049408 v 6.434133 l 1.27798,0.0027 v -6.43694 z"
         style="display:inline;opacity:1;fill:#225f97;fill-opacity:1;fill-rule:evenodd;stroke:#061019;stroke-width:0.57884157;stroke-linecap:round;stroke-linejoin:round;stroke-miterlimit:4;stroke-dasharray:none;stroke-dashoffset:0;stroke-opacity:1;paint-order:normal" />
      <path
         id="path897-7"
         d="m 217.42961,41.18476 h -6.43413 l -0.003,1.27798 h 6.43694 z"
         style="display:inline;opacity:1;fill:#225f97;fill-opacity:1;fill-rule:evenodd;stroke:#061019;stroke-width:0.57884157;stroke-linecap:round;stroke-linejoin:round;stroke-miterlimit:4;stroke-dasharray:none;stroke-dashoffset:0;stroke-opacity:1;paint-order:normal" />
      <path
         d="m 220.81641,74.222654 h 4.60934 m -4.60955,-4.60933 4.60958,-8.5e-5 m -4.60958,-4.839758 4.60958,-8.5e-5 m -4.60937,-4.611285 4.60937,5e-6 m -4.60937,-30.511725 h 4.60937 m -4.60961,-4.611329 h 4.60961 m 16.69922,0 4.60767,-8.1e-5 m -6.91822,4.61141 h 5.88086 m -24.8789,6.279298 4.60933,-0.710938 m -4.60933,-4.111329 4.60937,-0.498046 m -4.60937,21.464846 4.60937,1.001948 m -4.60937,-5.705075 4.75191,1.095745 m 36.3809,4.60933 4.61534,-4e-5 m -4.57042,-4.609293 4.75978,-3.4e-5 m -25.07619,4.609367 h 4.61133 m -4.61137,-4.60933 4.61137,-3e-6"
         style="display:inline;opacity:1;fill:#225f97;fill-opacity:1;fill-rule:evenodd;stroke:#000000;stroke-width:0.70999998;stroke-linecap:round;stroke-linejoin:round;stroke-miterlimit:4;stroke-dasharray:none;stroke-dashoffset:0;stroke-opacity:1;paint-order:normal"
         id="path1220" />
      <path
         id="path897-39"
         d="m 217.80106,37.53621 h -6.43412 l -0.003,1.27799 h 6.43694 z"
         style="display:inline;opacity:1;fill:#225f97;fill-opacity:1;fill-rule:evenodd;stroke:#061019;stroke-width:0.57884157;stroke-linecap:round;stroke-linejoin:round;stroke-miterlimit:4;stroke-dasharray:none;stroke-dashoffset:0;stroke-opacity:1;paint-order:normal" />
      <path
         id="path897-92-9"
         d="m 219.88351,30.43768 v 6.43414 l 1.27798,0.003 v -6.43695 z"
         style="display:inline;opacity:1;fill:#225f97;fill-opacity:1;fill-rule:evenodd;stroke:#061019;stroke-width:0.57884157;stroke-linecap:round;stroke-linejoin:round;stroke-miterlimit:4;stroke-dasharray:none;stroke-dashoffset:0;stroke-opacity:1;paint-order:normal" />
      <path
         id="path897-46"
         d="m 260.74018,61.3967 h 6.43413 l 0.003,-1.27798 h -6.43695 z"
         style="display:inline;opacity:1;fill:#225f97;fill-opacity:1;fill-rule:evenodd;stroke:#061019;stroke-width:0.57884157;stroke-linecap:round;stroke-linejoin:round;stroke-miterlimit:4;stroke-dasharray:none;stroke-dashoffset:0;stroke-opacity:1;paint-order:normal" />
      <path
         id="path897-92-2"
         d="m 219.53843,46.379593 v 6.43413 l 1.27798,0.003 v -6.43694 z"
         style="display:inline;opacity:1;fill:#225f97;fill-opacity:1;fill-rule:evenodd;stroke:#061019;stroke-width:0.57884157;stroke-linecap:round;stroke-linejoin:round;stroke-miterlimit:4;stroke-dasharray:none;stroke-dashoffset:0;stroke-opacity:1;paint-order:normal" />
      <path
         style="display:inline;opacity:1;fill:#225f97;fill-opacity:1;fill-rule:evenodd;stroke:#061019;stroke-width:0.57884157;stroke-linecap:round;stroke-linejoin:round;stroke-miterlimit:4;stroke-dasharray:none;stroke-dashoffset:0;stroke-opacity:1;paint-order:normal"
         d="m 232.80802,8.3840543 v -6.434133 l -1.27798,-0.0027 v 6.43694 z"
         id="path897-61" />
      <path
         style="display:inline;opacity:1;fill:#225f97;fill-opacity:1;fill-rule:evenodd;stroke:#061019;stroke-width:0.57884157;stroke-linecap:round;stroke-linejoin:round;stroke-miterlimit:4;stroke-dasharray:none;stroke-dashoffset:0;stroke-opacity:1;paint-order:normal"
         d="m 219.94478,189.84919 h 6.43413 l 0.003,-1.27798 h -6.43694 z"
         id="path897-09" />
      <path
         style="display:inline;opacity:1;fill:#225f97;fill-opacity:1;fill-rule:evenodd;stroke:#061019;stroke-width:0.57884157;stroke-linecap:round;stroke-linejoin:round;stroke-miterlimit:4;stroke-dasharray:none;stroke-dashoffset:0;stroke-opacity:1;paint-order:normal"
         d="m 179.98756,52.528778 h 6.43413 l 0.003,-1.27798 h -6.43694 z"
         id="path897-0" />
      <path
         style="display:inline;opacity:1;fill:#225f97;fill-opacity:1;fill-rule:evenodd;stroke:#061019;stroke-width:0.57884157;stroke-linecap:round;stroke-linejoin:round;stroke-miterlimit:4;stroke-dasharray:none;stroke-dashoffset:0;stroke-opacity:1;paint-order:normal"
         d="m 179.43644,40.204877 h 6.43412 l 0.003,-1.27798 h -6.43694 z"
         id="path897-4" />
      <path
         style="display:inline;opacity:1;fill:#225f97;fill-opacity:1;fill-rule:evenodd;stroke:#061019;stroke-width:0.57884157;stroke-linecap:round;stroke-linejoin:round;stroke-miterlimit:4;stroke-dasharray:none;stroke-dashoffset:0;stroke-opacity:1;paint-order:normal"
         d="m 282.9195,37.26545 h 6.43412 l 0.003,-1.27798 h -6.43694 z"
         id="path897-94" />
      <path
         style="display:inline;opacity:1;fill:#225f97;fill-opacity:1;fill-rule:evenodd;stroke:#061019;stroke-width:0.57884157;stroke-linecap:round;stroke-linejoin:round;stroke-miterlimit:4;stroke-dasharray:none;stroke-dashoffset:0;stroke-opacity:1;paint-order:normal"
         d="m 289.26094,42.29871 h -6.43414 l -0.003,1.27798 h 6.43694 z"
         id="path897-1" />
      <path
         style="display:inline;opacity:1;fill:#225f97;fill-opacity:1;fill-rule:evenodd;stroke:#061019;stroke-width:0.57884157;stroke-linecap:round;stroke-linejoin:round;stroke-miterlimit:4;stroke-dasharray:none;stroke-dashoffset:0;stroke-opacity:1;paint-order:normal"
         d="m 194.63851,59.39539 v 6.43413 l 1.27798,0.003 v -6.43694 z"
         id="path897-92" />
      <path
         style="display:inline;opacity:1;fill:#225f97;fill-opacity:1;fill-rule:evenodd;stroke:#061019;stroke-width:0.57884157;stroke-linecap:round;stroke-linejoin:round;stroke-miterlimit:4;stroke-dasharray:none;stroke-dashoffset:0;stroke-opacity:1;paint-order:normal"
         d="m 251.81101,69.047887 v 6.434133 l 1.27798,0.0027 v -6.43694 z"
         id="path897-5" />
      <path
         style="display:inline;opacity:1;fill:#225f97;fill-opacity:1;fill-rule:evenodd;stroke:#061019;stroke-width:0.57827258;stroke-linecap:round;stroke-linejoin:round;stroke-miterlimit:4;stroke-dasharray:none;stroke-dashoffset:0;stroke-opacity:1;paint-order:normal"
         d="m 210.42163,207.24386 v -6.41864 l -1.27854,-0.003 v 6.42143 z"
         id="path897-8-3" />
      <path
         style="display:inline;opacity:1;fill:#225f97;fill-opacity:1;fill-rule:evenodd;stroke:#061019;stroke-width:0.57828289;stroke-linecap:round;stroke-linejoin:round;stroke-miterlimit:4;stroke-dasharray:none;stroke-dashoffset:0;stroke-opacity:1;paint-order:normal"
         d="m 18.23433,207.19406 v -6.41892 l -1.278538,-0.002 v 6.42172 z"
         id="path897-8-8" />
      <path
         style="display:inline;opacity:1;fill:#225f97;fill-opacity:1;fill-rule:evenodd;stroke:#061019;stroke-width:0.57828295;stroke-linecap:round;stroke-linejoin:round;stroke-miterlimit:4;stroke-dasharray:none;stroke-dashoffset:0;stroke-opacity:1;paint-order:normal"
         d="m 9.2868414,186.55438 h -6.41892 l -0.00278,1.27855 h 6.4217172 z"
         id="path897-8-9" />
      <path
         style="display:inline;opacity:1;fill:#225f97;fill-opacity:1;fill-rule:evenodd;stroke:#061019;stroke-width:0.57828075;stroke-linecap:round;stroke-linejoin:round;stroke-miterlimit:4;stroke-dasharray:none;stroke-dashoffset:0;stroke-opacity:1;paint-order:normal"
         d="M 9.5948626,83.729756 H 3.1760003 l -0.00286,1.278546 H 9.594817 Z"
         id="path897-8" />
      <path
         style="display:inline;opacity:1;fill:#225f97;fill-opacity:1;fill-rule:evenodd;stroke:#061019;stroke-width:0.57884157;stroke-linecap:round;stroke-linejoin:round;stroke-miterlimit:4;stroke-dasharray:none;stroke-dashoffset:0;stroke-opacity:1;paint-order:normal"
         d="m 22.314421,68.935746 v 6.434133 l 1.277982,0.0027 v -6.43694 z"
         id="path897" />
    </g>
  </g>
  <g
     style="display:inline"
     id="layer5" />
  <g
     style="display:inline"
     id="layer4" />
  <rect
     y="12.85769"
     x="32.665607"
     height="6.482121"
     width="13.745037"
     id="rect1045"
     style="opacity:1;fill:#3a6b80;fill-opacity:0.9848485;fill-rule:evenodd;stroke:#040404;stroke-width:0.1;stroke-linecap:butt;stroke-linejoin:round;stroke-miterlimit:4;stroke-dasharray:none;stroke-dashoffset:0;stroke-opacity:0.99515873;paint-order:normal" />
  <rect
     y="4.6833329"
     x="43.65625"
     height="11.377083"
     width="7.1437497"
     id="rect1104"
     style="opacity:1;fill:#6884bb;fill-opacity:0.99607843;fill-rule:evenodd;stroke:#040404;stroke-width:0.1;stroke-linecap:butt;stroke-linejoin:round;stroke-miterlimit:4;stroke-dasharray:none;stroke-dashoffset:0;stroke-opacity:0.99515873;paint-order:normal" />
  <g
     id="g1136">
    <path
       style="display:inline;opacity:1;fill:#3a6b80;fill-opacity:0.9848485;fill-rule:evenodd;stroke:#070c10;stroke-width:0.1;stroke-linecap:butt;stroke-linejoin:round;stroke-miterlimit:4;stroke-dasharray:none;stroke-dashoffset:0;stroke-opacity:0.99497483;paint-order:normal"
       d="m 106.48704,5.4621988 -7.753532,1.9352823 9.931172,0.3875733 -1.80402,22.6322096 3.87728,-1.731676 -0.85886,-20.8529911 1.56579,0.060978 1.03715,0.1178224 10.34201,-0.9828858 z"
       id="path1059" />
    <path
       style="display:inline;opacity:1;fill:#3a6b80;fill-opacity:0.9848485;fill-rule:evenodd;stroke:#070c10;stroke-width:0.1;stroke-linecap:butt;stroke-linejoin:round;stroke-miterlimit:4;stroke-dasharray:none;stroke-dashoffset:0;stroke-opacity:0.99497483;paint-order:normal"
       d="m 116.82293,12.759734 c -1.02761,0.10637 -1.02409,0.131788 -0.94522,1.24436 l 0.23157,1.327236 1.70206,15.435728 2.63553,-3.567522 -0.80852,-3.635905 c 6.39988,-1.759792 7.79743,1.631702 12.12069,6.858783 0,0 2.20526,-3.746641 1.64206,-2.632512 l -5.49002,-6.072264 c 0.70312,-0.417891 2.91589,-1.657866 3.39888,-2.175908 1.12562,-1.20731 1.31193,-2.9018 0.55751,-4.123561 -0.7544,-1.221765 -2.16851,-2.007344 -3.92353,-2.35004 -3.4153,-0.66689 -6.31501,-0.782887 -11.12106,-0.30839 z m 1.35378,2.017651 c 4.21675,-0.401258 6.817,-0.113073 9.35878,0.383244 1.34079,0.261811 2.20793,0.875753 2.51794,1.377811 0.31001,0.502058 0.3439,0.855694 -0.30242,1.548932 -0.64636,0.69326 -2.25139,1.585919 -4.29806,2.404166 -1.75717,0.70251 -3.91149,0.49617 -6.11278,0.952082 z"
       id="path1063" />
    <text
       xml:space="preserve"
       style="font-style:normal;font-variant:normal;font-weight:bold;font-stretch:normal;font-size:12.69999981px;line-height:1.25;font-family:Calibri;-inkscape-font-specification:'Calibri, Bold';font-variant-ligatures:normal;font-variant-caps:normal;font-variant-numeric:normal;font-feature-settings:normal;text-align:start;letter-spacing:0px;word-spacing:0px;writing-mode:lr-tb;text-anchor:start;display:inline;fill:#000000;fill-opacity:1;stroke:none;stroke-width:0.26458332"
       x="52.951664"
       y="63.881248"
       id="text1001"><tspan
         id="tspan999"
         x="52.951664"
         y="63.881248"
         style="font-style:normal;font-variant:normal;font-weight:bold;font-stretch:normal;font-size:12.69999981px;font-family:Calibri;-inkscape-font-specification:'Calibri, Bold';font-variant-ligatures:normal;font-variant-caps:normal;font-variant-numeric:normal;font-feature-settings:normal;text-align:start;writing-mode:lr-tb;text-anchor:start;stroke-width:0.26458332">Mieczysław Troc</tspan></text>
    <path
       style="display:inline;opacity:1;fill:#5e803a;fill-opacity:0.00505054;fill-rule:evenodd;stroke:#070c10;stroke-width:2.6099999;stroke-linecap:butt;stroke-linejoin:round;stroke-miterlimit:4;stroke-dasharray:none;stroke-dashoffset:0;stroke-opacity:0.99497483;paint-order:normal"
       d="M 25.616249,49.619997 H 156.66751"
       id="path1005" />
    <path
       style="display:inline;opacity:1;fill:#5e803a;fill-opacity:0.00505054;fill-rule:evenodd;stroke:#070c10;stroke-width:2.42208815;stroke-linecap:butt;stroke-linejoin:round;stroke-miterlimit:4;stroke-dasharray:none;stroke-dashoffset:0;stroke-opacity:0.99497483;paint-order:normal"
       d="M 43.43625,44.422497 H 156.29626"
       id="path1005-7" />
    <path
       style="display:inline;opacity:1;fill:#5e803a;fill-opacity:0.00505054;fill-rule:evenodd;stroke:#070c10;stroke-width:3.91199994;stroke-linecap:butt;stroke-linejoin:round;stroke-miterlimit:4;stroke-dasharray:none;stroke-dashoffset:0;stroke-opacity:0.99497483;paint-order:normal"
       d="M 53.27437,35.88375 H 156.11063"
       id="path1005-0" />
    <path
       style="opacity:1;fill:#3a6a80;fill-opacity:0.99607843;fill-rule:evenodd;stroke:#3a6a80;stroke-width:0.1;stroke-linecap:butt;stroke-linejoin:round;stroke-miterlimit:4;stroke-dasharray:none;stroke-dashoffset:0;stroke-opacity:0.99607843;paint-order:normal"
       d="m 143.91307,13.726912 c -3.99814,1.5e-5 -7.23928,3.739743 -7.23935,8.352979 7e-5,4.613236 3.24121,8.352963 7.23935,8.352978 3.99814,-1.5e-5 7.23928,-3.739742 7.23935,-8.352978 -7e-5,-4.613236 -3.24121,-8.352964 -7.23935,-8.352979 z m -0.74259,1.488798 c 2.97096,-1.67e-4 5.37947,3.073065 5.37952,6.864181 -5e-5,3.791116 -2.40856,6.864348 -5.37952,6.864181 -2.97076,-1.96e-4 -5.37896,-3.073322 -5.379,-6.864181 4e-5,-3.790859 2.40824,-6.863984 5.379,-6.864181 z"
       id="path1029" />
    <rect
       style="opacity:1;fill:#1f1f9b;fill-opacity:0.9848485;fill-rule:evenodd;stroke:#040404;stroke-width:0.1;stroke-linecap:butt;stroke-linejoin:round;stroke-miterlimit:4;stroke-dasharray:none;stroke-dashoffset:0;stroke-opacity:0.99515872;paint-order:normal"
       id="rect1031"
       width="7.7962503"
       height="4.8262501"
       x="55.31625"
       y="37.740002" />
    <rect
       style="opacity:1;fill:#1b1b9f;fill-opacity:0.9848485;fill-rule:evenodd;stroke:#040404;stroke-width:0.1;stroke-linecap:butt;stroke-linejoin:round;stroke-miterlimit:4;stroke-dasharray:none;stroke-dashoffset:0;stroke-opacity:0.99515872;paint-order:normal"
       id="rect1033"
       width="15.606961"
       height="7.8702941"
       x="57.255272"
       y="2.7840197" />
    <rect
       style="opacity:1;fill:#3a4b80;fill-opacity:0.9848485;fill-rule:evenodd;stroke:#040404;stroke-width:0.1;stroke-linecap:butt;stroke-linejoin:round;stroke-miterlimit:4;stroke-dasharray:none;stroke-dashoffset:0;stroke-opacity:0.99515872;paint-order:normal"
       id="rect1035"
       width="12.652216"
       height="10.053469"
       x="32.65514"
       y="19.905142" />
    <rect
       style="opacity:1;fill:#3a4b80;fill-opacity:0.9848485;fill-rule:evenodd;stroke:#040404;stroke-width:0.1;stroke-linecap:butt;stroke-linejoin:round;stroke-miterlimit:4;stroke-dasharray:none;stroke-dashoffset:0;stroke-opacity:0.99515872;paint-order:normal"
       id="rect1037"
       width="19.305"
       height="8.1674995"
       x="31.185001"
       y="31.057501" />
    <rect
       style="opacity:1;fill:#3a4b80;fill-opacity:0.9848485;fill-rule:evenodd;stroke:#040404;stroke-width:0.1;stroke-linecap:butt;stroke-linejoin:round;stroke-miterlimit:4;stroke-dasharray:none;stroke-dashoffset:0;stroke-opacity:0.99515872;paint-order:normal"
       id="rect1039"
       width="6.4273987"
       height="6.6323996"
       x="31.924843"
       y="39.64901" />
    <rect
       style="opacity:1;fill:#3a4b80;fill-opacity:0.9848485;fill-rule:evenodd;stroke:#040404;stroke-width:0.1;stroke-linecap:butt;stroke-linejoin:round;stroke-miterlimit:4;stroke-dasharray:none;stroke-dashoffset:0;stroke-opacity:0.99515872;paint-order:normal"
       id="rect1041"
       width="23.76"
       height="6.3112502"
       x="45.112247"
       y="19.130417" />
    <rect
       style="opacity:1;fill:#3a6b80;fill-opacity:0.9848485;fill-rule:evenodd;stroke:#040404;stroke-width:0.1;stroke-linecap:butt;stroke-linejoin:round;stroke-miterlimit:4;stroke-dasharray:none;stroke-dashoffset:0;stroke-opacity:0.99515872;paint-order:normal"
       id="rect1043"
       width="10.539109"
       height="2.7761927"
       x="46.110443"
       y="3.8266954" />
    <rect
       style="opacity:1;fill:#2b4f5e;fill-opacity:0.9848485;fill-rule:evenodd;stroke:#040404;stroke-width:0.11043166;stroke-linecap:butt;stroke-linejoin:round;stroke-miterlimit:4;stroke-dasharray:none;stroke-dashoffset:0;stroke-opacity:0.99515872;paint-order:normal"
       id="rect1047"
       width="27.47279"
       height="3.2765388"
       x="37.898605"
       y="10.974689" />
    <path
       style="opacity:1;fill:#3a6b80;fill-opacity:0.9848485;fill-rule:evenodd;stroke:#070c10;stroke-width:0.37795275;stroke-linecap:butt;stroke-linejoin:round;stroke-miterlimit:4;stroke-dasharray:none;stroke-dashoffset:0;stroke-opacity:0.99497483;paint-order:normal"
       d="m 306.14527,26.689472 -5.9279,76.575968 -20.99081,21.133 26.4999,-111.315041 22.94169,52.748632 20.7168,-50.878906 8.41796,1.402344 c -3.80439,30.741471 6.60013,63.517741 6.59747,95.220701 l -11.83789,9.41992 -4.32031,-84.607418 c -6.68413,14.357081 -13.89191,29.822453 -21.30859,43.109375 z"
       transform="scale(0.26458333)"
       id="path1049" />
    <path
       style="opacity:1;fill:#3a6b80;fill-opacity:0.9848485;fill-rule:evenodd;stroke:#070c10;stroke-width:0.08648188;stroke-linecap:butt;stroke-linejoin:round;stroke-miterlimit:4;stroke-dasharray:none;stroke-dashoffset:0;stroke-opacity:0.99497483;paint-order:normal"
       d="M 98.690325,18.481382 V 30.850925 L 101.67384,28.63969 100.7627,16.931193 Z"
       id="path1055" />
    <path
       style="opacity:1;fill:#3a6b80;fill-opacity:0.9848485;fill-rule:evenodd;stroke:#070c10;stroke-width:0.1;stroke-linecap:butt;stroke-linejoin:round;stroke-miterlimit:4;stroke-dasharray:none;stroke-dashoffset:0;stroke-opacity:0.99497483;paint-order:normal"
       d="m 98.325833,13.079583 v 3.34125 l 2.598747,-2.59875 0.37125,-2.59875 z"
       id="path1057" />
    <rect
       style="opacity:1;fill:#3a6b80;fill-opacity:0.9848485;fill-rule:evenodd;stroke:#040404;stroke-width:0.1;stroke-linecap:butt;stroke-linejoin:round;stroke-miterlimit:4;stroke-dasharray:none;stroke-dashoffset:0;stroke-opacity:0.99515872;paint-order:normal"
       id="rect1043-9"
       width="20.043827"
       height="2.7559114"
       x="33.105171"
       y="7.0095448" />
    <rect
       style="opacity:1;fill:#6884bb;fill-opacity:0.99607843;fill-rule:evenodd;stroke:#040404;stroke-width:0.1;stroke-linecap:butt;stroke-linejoin:round;stroke-miterlimit:4;stroke-dasharray:none;stroke-dashoffset:0;stroke-opacity:0.99515872;paint-order:normal"
       id="rect1106"
       width="6.8791666"
       height="1.8520833"
       x="60.854168"
       y="16.854166" />
  </g>
</svg>
