<?xml version="1.0" encoding="UTF-8"?>
<!DOCTYPE svg PUBLIC "-//W3C//DTD SVG 1.1//EN" "http://www.w3.org/Graphics/SVG/1.1/DTD/svg11.dtd">
<!-- Creator: CorelDRAW 2019 (64-Bit Wersja próbna) -->
<svg xmlns="http://www.w3.org/2000/svg" xml:space="preserve" width="210mm" height="297mm" version="1.1" style="shape-rendering:geometricPrecision; text-rendering:geometricPrecision; image-rendering:optimizeQuality; fill-rule:evenodd; clip-rule:evenodd"
viewBox="0 0 21000 29700"
 xmlns:xlink="http://www.w3.org/1999/xlink"
 xmlns:xodm="http://www.corel.com/coreldraw/odm/2003">
 <defs>
  <style type="text/css">
   <![CDATA[
    .str1 {stroke:black;stroke-width:0.85;stroke-miterlimit:22.9256}
    .str2 {stroke:#050505;stroke-width:0.85;stroke-miterlimit:22.9256}
    .str0 {stroke:#AB2929;stroke-width:42.33;stroke-miterlimit:5.21742}
    .fil0 {fill:none}
    .fil1 {fill:blue}
    .fil3 {fill:lime}
    .fil2 {fill:red}
    .fil4 {fill:red}
   ]]>
         @keyframes logoAnimate1 {
      from {
        stroke-dashoffset: -5000;
          }
      to {
       stroke-dashoffset:0;
        }
         }
         #house{
             stroke-dasharray:5000;
            stroke-dashoffset:-1000;
   animation: logoAnimate1 1s linear 0s infinite;
         }
  </style>
 </defs>
 <g id="house">
  <metadata id="CorelCorpID_0Corel-Layer"/>
  <path class="fil0 str0" d="M9037.03 15687.85l768.23 -3.62c23.39,-0.11 42.26,-19.15 42.15,-42.54l-3.63 -807.57c-0.08,-15.39 5.61,-28.01 19.03,-35.55l777.32 -513.02c7.31,-5.56 18.48,-10.07 27.67,-10.12 9.19,-0.04 18.15,2.92 25.52,8.41l166.87 107.81 -8.47 -180.73 448.59 -3.92 2.22 470.71 172.72 111.7c13.5,7.41 23.54,24.61 23.61,40l2.08 804.82c0.11,23.39 19.28,41.91 42.67,41.8l387.29 -1.83"/>
 </g>
 <g id="arrow">
  <metadata id="CorelCorpID_1Corel-Layer"/>
  <polygon class="fil1 str1" points="11025.17,15156.46 10950.92,15238.65 11073.63,15271.52 "/>
  <polygon class="fil2 str1" points="10561.97,14849.71 10529.1,14727 10453.64,14826.46 "/>
  <polygon class="fil3 str1" points="10329.86,15470.76 10419.67,15380.96 10453.64,15486.46 "/>
  <path class="fil4 str1" d="M10556.52 14829.33c28.59,-7.66 57.64,-11.41 87.24,-11.41 164.35,0 304.98,117.95 333.52,279.8l83.38 -14.64c-35.66,-202.34 -211.46,-349.84 -416.89,-349.84 -36.99,0 -73.43,4.72 -109.17,14.32l21.92 81.77z"/>
  <g>
   <path class="fil2" d="M10528.34 15474.7l-28.95 79.57c46.39,16.89 95.4,25.53 144.78,25.53 191.6,0 359.31,-128.71 408.9,-313.78l-524.73 208.68zm524.73 -208.68l-81.78 -21.91c-39.67,148.06 -173.84,251.02 -327.12,251.02 -39.51,0 -78.7,-6.91 -115.83,-20.43l524.73 -208.68zm-81.78 -21.91l0 0 0 0z"/>
   <path id="1" class="fil0 str2" d="M10528.34 15474.7l-28.95 79.57c46.39,16.89 95.4,25.53 144.78,25.53 191.6,0 359.31,-128.71 408.9,-313.78m0 0l-81.78 -21.91c-39.67,148.06 -173.84,251.02 -327.12,251.02 -39.51,0 -78.7,-6.91 -115.83,-20.43m442.95 -230.59l0 0 0 0z"/>
  </g>
  <g>
   <path class="fil2" d="M10372.06 14832.16l54.42 64.87c-76.69,64.34 -120.97,159.33 -120.97,259.43 0,89.83 35.68,175.96 99.19,239.47l-59.87 59.87 27.23 -623.64zm0 0c-95.86,80.45 -151.22,199.15 -151.22,324.3 0,112.26 44.6,219.95 123.99,299.34l27.23 -623.64zm32.64 563.77l0 0 0 0z"/>
   <path id="1" class="fil0 str1" d="M10372.06 14832.16l54.42 64.87c-76.69,64.34 -120.97,159.33 -120.97,259.43 0,89.83 35.68,175.96 99.19,239.47l-59.87 59.87m27.23 -623.64c-95.86,80.45 -151.22,199.15 -151.22,324.3 0,112.26 44.6,219.95 123.99,299.34m59.87 -59.87l0 0 0 0z"/>
  </g>
 </g>
 <g id="pomocniczeCircle" visibility="hidden">
  <metadata id="CorelCorpID_2Corel-Layer"/>
  <g>
   <path class="fil2" d="M10644.17 15156.46l-230.21 632.48 230.21 -632.48zm0 0l-432.64 -515.61 432.64 515.61zm0 0l662.86 -116.89 -662.86 116.89zm0 0l0 0 0 0z"/>
   <path id="1" class="fil0 str1" d="M10644.17 15156.46l-230.21 632.48m230.21 -632.48l-432.64 -515.61m432.64 515.61l662.86 -116.89m-662.86 116.89l0 0 0 0z"/>
  </g>
  <ellipse class="fil0 str1" cx="10644.17" cy="15156.46" rx="423.33" ry="423.34"/>
  <ellipse class="fil0 str1" cx="10644.17" cy="15156.46" rx="338.66" ry="338.67"/>
  <g>
   <path class="fil2" d="M10644.17 15156.46l673.08 0 -673.08 0zm0 0l-336.54 -582.9 336.54 582.9zm0 0l-336.54 582.9 336.54 -582.9zm0 0l0 0 0 0z"/>
   <path id="1" class="fil0 str1" d="M10644.17 15156.46l673.08 0m-673.08 0l-336.54 -582.9m336.54 582.9l-336.54 582.9m336.54 -582.9l0 0 0 0z"/>
  </g>
  <g>
   <path class="fil2" d="M10644.17 15156.45l650.15 174.21 -650.15 -174.21zm0 0l-174.2 -650.14 174.2 650.14zm0 0l-475.94 475.94 475.94 -475.94zm0 0l0 0 0 0z"/>
   <path id="1" class="fil0 str1" d="M10644.17 15156.45l650.15 174.21m-650.15 -174.21l-174.2 -650.14m174.2 650.14l-475.94 475.94m475.94 -475.94l0 0 0 0z"/>
  </g>
  <circle class="fil0 str1" cx="10644.17" cy="15156.46" r="381"/>
  <circle class="fil0 str1" cx="10644.17" cy="15156.46" r="317.5"/>
  <ellipse class="fil0 str1" cx="10644.17" cy="15156.46" rx="444.5" ry="444.49"/>
 </g>
  <animateTransform attributeName="transform" xlink:href="#arrow" attributeType="XML" type="rotate" from="360 10644.17 15156.46" to="0 10644.17 15156.46" dur="10s" repeatCount="indefinite"/>
</svg>
