<?xml version="1.0" encoding="UTF-8"?>
<!DOCTYPE svg PUBLIC "-//W3C//DTD SVG 1.1//EN" "http://www.w3.org/Graphics/SVG/1.1/DTD/svg11.dtd">
<!-- Creator: CorelDRAW 2019 (64-Bit Wersja próbna) -->
<svg xmlns="http://www.w3.org/2000/svg" xml:space="preserve" width="35mm" height="22mm" version="1.1" style="shape-rendering:geometricPrecision; text-rendering:geometricPrecision; image-rendering:optimizeQuality; fill-rule:evenodd; clip-rule:evenodd"
viewBox="0 0 3500 2200"
 xmlns:xlink="http://www.w3.org/1999/xlink"
 xmlns:xodm="http://www.corel.com/coreldraw/odm/2003">
 <defs>
  <style type="text/css">
   <![CDATA[
    .str1 {stroke:red;stroke-width:10;stroke-miterlimit:22.9256;}
     .s11 {stroke:blue;stroke-width:10;stroke-miterlimit:22.9256;}
    .str2 {stroke:blue;stroke-width:10;stroke-miterlimit:22.9256}
    .str0 {stroke:#AB2929;stroke-width:30;stroke-miterlimit:5.21742}
    .fil0 {fill:none; filter: box-shadow: 3px 2px 0px 45px rgba(0,0,0,0.75);}
    .fil1 {fill:none; stroke-width:20; filter: box-shadow: 3px 2px 0px 45px rgba(0,0,0,0.75);}
    .fil3 {fill:none; stroke-width:20; filter: box-shadow: 3px 2px 0px 45px rgba(0,0,0,0.75);}
    .fil2 {fill:none; stroke-width:20; filter: box-shadow: 3px 2px 0px 45px rgba(0,0,0,0.75);}
    .fil4 {stroke:yellow; fill:none; stroke-width:10; filter: box-shadow: 3px 2px 0px 45px rgba(0,0,0,0.75);}
   ]]>
            @keyframes logoAnimate1 {
      from {
        stroke-dashoffset: -5000;
          }
      to {
       stroke-dashoffset:0;
        }

         }

            @keyframes logoAnimate2 {
      from {
          stroke-dasharray:600;
          stroke-dashoffset: -5000;
          }
      to {
        stroke-dasharray:6000;
        stroke-dashoffset: 0;
        }}

            @keyframes arrayAnimate1 {
      0% {
          opacity: 0;
          }
      90%{
        opacity: 0;
      }
      100% {
       opacity: 1;
        }

         }



         #house{
             stroke-dasharray:6000;
             filter: drop-shadow( 300px -100px 0px rgba(0, 0, 0,.1));
              animation: logoAnimate1 1s linear 0s 1, logoAnimate2 5s linear 2s 1;
         }
         #arrow{
            animation: arrayAnimate1 8s linear 0s 1;
         }
  </style>
 </defs>
 <g id="house">
  <metadata id="CorelCorpID_0Corel-Layer"/>
  <path class="fil0 str0" d="M287.03 1937.85l768.23 -3.62c23.39,-0.11 42.26,-19.15 42.15,-42.54l-3.63 -807.57c-0.08,-15.39 5.61,-28.01 19.03,-35.55l777.32 -513.02c7.31,-5.56 18.48,-10.07 27.67,-10.12 9.19,-0.04 18.15,2.92 25.52,8.41l166.87 107.81 -8.47 -180.73 448.59 -3.92 2.22 470.71 172.72 111.7c13.5,7.41 23.54,24.61 23.61,40l2.08 804.82c0.11,23.39 19.28,41.91 42.67,41.8l387.29 -1.83"/>
 </g>
 <g id="arrow">
  <metadata id="CorelCorpID_1Corel-Layer"/>
  <polygon class="fil1 str1" points="2275.17,1406.46 2200.92,1488.65 2323.63,1521.52 "/>
  <polygon class="fil2 str1" points="1811.97,1099.71 1779.1,977 1703.64,1076.46 "/>
  <polygon class="fil3 str1" points="1579.86,1720.76 1669.67,1630.96 1703.64,1736.46 "/>
  <path class="fil4 str1" d="M1806.52 1079.33c28.59,-7.66 57.64,-11.41 87.24,-11.41 164.35,0 304.98,117.95 333.52,279.8l83.38 -14.64c-35.66,-202.34 -211.46,-349.84 -416.89,-349.84 -36.99,0 -73.43,4.72 -109.17,14.32l21.92 81.77z"/>
  <g>
   <path class="fil2" d="M1778.34 1724.7l-28.95 79.57c46.39,16.89 95.4,25.53 144.78,25.53 191.6,0 359.31,-128.71 408.9,-313.78l-524.73 208.68zm524.73 -208.68l-81.78 -21.91c-39.67,148.06 -173.84,251.02 -327.12,251.02 -39.51,0 -78.7,-6.91 -115.83,-20.43l524.73 -208.68zm-81.78 -21.91l0 0 0 0z"/>
 <path id="1" class="fil0 str2" d="M1778.34 1724.7l-28.95 79.57c46.39,16.89 95.4,25.53 144.78,25.53 191.6,0 359.31,-128.71 408.9,-313.78m0 0l-81.78 -21.91c-39.67,148.06 -173.84,251.02 -327.12,251.02 -39.51,0 -78.7,-6.91 -115.83,-20.43m442.95 -230.59l0 0 0 0z"/>
  </g>
  <g>
   <path class="fil2" d="M1622.06 1082.16l54.42 64.87c-76.69,64.34 -120.97,159.33 -120.97,259.43 0,89.83 35.68,175.96 99.19,239.47l-59.87 59.87 27.23 -623.64zm0 0c-95.86,80.45 -151.22,199.15 -151.22,324.3 0,112.26 44.6,219.95 123.99,299.34l27.23 -623.64zm32.64 563.77l0 0 0 0z"/>
  <path id="1" class="fil0 str1 s11" d="M1622.06 1082.16l54.42 64.87c-76.69,64.34 -120.97,159.33 -120.97,259.43 0,89.83 35.68,175.96 99.19,239.47l-59.87 59.87m27.23 -623.64c-95.86,80.45 -151.22,199.15 -151.22,324.3 0,112.26 44.6,219.95 123.99,299.34m59.87 -59.87l0 0 0 0z"/>
  </g>
 </g>
  <animateTransform attributeName="transform" xlink:href="#arrow" attributeType="XML" type="rotate" from="360 1894.17 1406.45" to="0 1894.17 1406.45" dur="10s" repeatCount="indefinite"/>
</svg>
