<?xml version="1.0" encoding="UTF-8" standalone="no"?>
<!DOCTYPE svg PUBLIC "-//W3C//DTD SVG 1.1//EN" "http://www.w3.org/Graphics/SVG/1.1/DTD/svg11.dtd">
<svg version="1.1" xmlns="http://www.w3.org/2000/svg" xmlns:xlink="http://www.w3.org/1999/xlink" preserveAspectRatio="xMidYMid meet" viewBox="0 0 1290 300" width="1290" height="300"><defs><path d="M1268.43 248.67C1011.05 248.67 850.19 248.67 785.84 248.67C778.49 248.67 772.51 242.77 772.41 235.42C772.07 209.62 771.19 143.87 770.84 117.67C770.75 110.68 767.03 104.24 761.01 100.67C757.84 98.79 749.91 94.07 737.21 86.53L737.21 44.42L705.63 44.42L705.63 65.48C678.22 47.71 661.08 36.6 654.23 32.16C647.05 27.51 637.82 27.45 630.58 32C606.93 46.89 546.84 84.7 522.93 99.75C516.33 103.9 512.33 111.15 512.33 118.95C512.33 144.89 512.33 209.63 512.33 235.44C512.33 242.75 506.4 248.67 499.09 248.67C498.84 248.67 498.19 248.67 497.17 248.67L33.26 248.67" id="a1J7AsuoWk"></path><path d="M747.32 118L532.32 118" id="cJGajBnnA"></path><path d="M550.81 130.65L572.32 130.65L572.32 172.3L550.81 172.3L550.81 130.65Z" id="a1J3xDAHyR"></path><path d="M610.37 130.65L631.88 130.65L631.88 172.3L610.37 172.3L610.37 130.65Z" id="chghNhW7F"></path><path d="M550.81 179.02L572.32 179.02L572.32 220.67L550.81 220.67L550.81 179.02Z" id="b6661R8pTQ"></path><path d="M607.34 179.02L628.85 179.02L628.85 220.67L607.34 220.67L607.34 179.02Z" id="d2z1mGkeJQ"></path><path d="M579.07 130.65L600.59 130.65L600.59 172.3L579.07 172.3L579.07 130.65Z" id="czVcjXf6f"></path><path d="M579.07 179.02L600.59 179.02L600.59 220.67L579.07 220.67L579.07 179.02Z" id="aOxx2fsoo"></path></defs><g><g><g><g><use xlink:href="#a1J7AsuoWk" opacity="1" fill-opacity="0" stroke="#6f0c0c" stroke-width="10" stroke-opacity="1"></use></g></g><g><g><use xlink:href="#cJGajBnnA" opacity="1" fill-opacity="0" stroke="#6f0c0c" stroke-width="10" stroke-opacity="1"></use></g></g><g><use xlink:href="#a1J3xDAHyR" opacity="1" fill="#710d0d" fill-opacity="1"></use><g><use xlink:href="#a1J3xDAHyR" opacity="1" fill-opacity="0" stroke="#6f0c0c" stroke-width="0" stroke-opacity="1"></use></g></g><g><use xlink:href="#chghNhW7F" opacity="1" fill="#5f1212" fill-opacity="1"></use><g><use xlink:href="#chghNhW7F" opacity="1" fill-opacity="0" stroke="#6f0c0c" stroke-width="0" stroke-opacity="1"></use></g></g><g><use xlink:href="#b6661R8pTQ" opacity="1" fill="#5f1212" fill-opacity="1"></use><g><use xlink:href="#b6661R8pTQ" opacity="1" fill-opacity="0" stroke="#6f0c0c" stroke-width="0" stroke-opacity="1"></use></g></g><g><use xlink:href="#d2z1mGkeJQ" opacity="1" fill="#540f0f" fill-opacity="1"></use></g><g><use xlink:href="#czVcjXf6f" opacity="1" fill="#5f1212" fill-opacity="1"></use><g><use xlink:href="#czVcjXf6f" opacity="1" fill-opacity="0" stroke="#6f0c0c" stroke-width="0" stroke-opacity="1"></use></g></g><g><use xlink:href="#aOxx2fsoo" opacity="1" fill="#5f1212" fill-opacity="1"></use></g></g></g></svg>